<svg width="2174" height="500" viewBox="0 0 2174 500" fill="none" xmlns="http://www.w3.org/2000/svg">
<g clip-path="url(#clip0_1021_490)">
<path d="M500 0H0V500H500V0Z" fill="white"/>
<path d="M174.265 124C150.373 124 131 143.373 131 167.265H227.348V334.343C226.101 373.256 279.712 388.888 304.767 366.531C304.767 366.531 275.372 369.12 275.372 331.346C275.372 293.571 275.372 214.294 275.372 214.294C275.372 191.109 258.949 171.772 237.094 167.265H325.351C349.243 167.265 368.616 147.892 368.616 124H174.265Z" fill="black"/>
<path d="M131 207.48V179H139V207.48H131ZM137.48 207.48V200.84H152.76V207.48H137.48ZM137.48 196.2V189.72H151.28V196.2H137.48ZM137.48 185.64V179H152.52V185.64H137.48Z" fill="black"/>
<path d="M164.36 207.48L153.92 179H162.4L170.12 202H166.36L174.2 179H182.56L171.96 207.48H164.36Z" fill="black"/>
<path d="M185.219 207.48V179H191.019L201.619 194.52H199.099L209.659 179H215.459V207.48H207.539V192.12L208.699 192.44L202.899 200.76H197.779L192.019 192.44L193.139 192.12V207.48H185.219Z" fill="black"/>
<path d="M134.97 226.495V213.224H138.698V226.495H134.97ZM131 216.392V213.224H142.687V216.392H131Z" fill="black"/>
<path d="M144.088 226.495V213.224H147.816V226.495H144.088ZM147.108 226.495V223.401H154.228V226.495H147.108ZM147.108 221.239V218.219H153.538V221.239H147.108ZM147.108 216.318V213.224H154.116V216.318H147.108Z" fill="black"/>
<path d="M159.952 226.718C158.821 226.718 157.833 226.557 156.988 226.234C156.156 225.898 155.385 225.37 154.677 224.65L157.007 222.32C157.491 222.779 158.001 223.134 158.535 223.382C159.07 223.618 159.641 223.736 160.25 223.736C160.76 223.736 161.145 223.662 161.406 223.513C161.667 223.351 161.797 223.134 161.797 222.86C161.797 222.587 161.685 222.363 161.462 222.189C161.238 222.003 160.94 221.841 160.567 221.705C160.207 221.555 159.803 221.406 159.355 221.257C158.92 221.108 158.486 220.928 158.051 220.717C157.616 220.505 157.212 220.251 156.839 219.952C156.479 219.642 156.187 219.263 155.963 218.815C155.739 218.356 155.628 217.797 155.628 217.138C155.628 216.281 155.833 215.541 156.243 214.92C156.653 214.299 157.231 213.826 157.976 213.503C158.722 213.168 159.598 213 160.604 213C161.598 213 162.518 213.162 163.363 213.485C164.22 213.795 164.929 214.243 165.488 214.827L163.139 217.157C162.729 216.759 162.319 216.467 161.909 216.281C161.499 216.082 161.052 215.982 160.567 215.982C160.182 215.982 159.871 216.044 159.635 216.169C159.411 216.293 159.299 216.479 159.299 216.728C159.299 216.989 159.411 217.206 159.635 217.38C159.859 217.542 160.151 217.691 160.511 217.828C160.884 217.964 161.288 218.107 161.723 218.256C162.17 218.405 162.611 218.586 163.046 218.797C163.481 218.996 163.879 219.257 164.239 219.58C164.612 219.89 164.91 220.282 165.134 220.754C165.357 221.226 165.469 221.798 165.469 222.469C165.469 223.823 164.984 224.873 164.015 225.619C163.058 226.352 161.704 226.718 159.952 226.718Z" fill="black"/>
<path d="M169.773 226.495V213.224H173.501V226.495H169.773ZM165.803 216.392V213.224H177.49V216.392H165.803Z" fill="black"/>
<path d="M178.891 226.495V213.224H181.501L182.619 216.02V226.495H178.891ZM188.024 226.495L180.326 216.821L181.501 213.224L189.199 222.897L188.024 226.495ZM188.024 226.495L187.092 223.55V213.224H190.82V226.495H188.024Z" fill="black"/>
<path d="M193.016 226.495V213.224H196.744V226.495H193.016ZM196.036 226.495V223.401H203.156V226.495H196.036ZM196.036 221.239V218.219H202.466V221.239H196.036ZM196.036 216.318V213.224H203.044V216.318H196.036Z" fill="black"/>
<path d="M207.743 226.495V213.224H211.471V226.495H207.743ZM203.773 216.392V213.224H215.46V216.392H203.773Z" fill="black"/>
</g>
<path d="M693.471 371.893V128.977H761.706V371.893H693.471ZM620.801 186.976V128.977H834.717V186.976H620.801Z" fill="black"/>
<path d="M815.63 371.893L908.088 128.977H977.688L1069.12 371.893H998.158L930.264 165.482H954.829L885.229 371.893H815.63ZM875.676 330.952V277.729H1011.46V330.952H875.676Z" fill="black"/>
<path d="M1197.03 376.669C1177.92 376.669 1160.29 373.485 1144.14 367.116C1128.22 360.748 1114.23 351.877 1102.18 340.505C1090.35 329.132 1081.14 315.713 1074.54 300.246C1067.95 284.779 1064.65 268.062 1064.65 250.093C1064.65 231.897 1067.83 215.18 1074.2 199.941C1080.8 184.702 1090.01 171.396 1101.84 160.023C1113.66 148.651 1127.54 139.894 1143.46 133.753C1159.61 127.384 1177.24 124.2 1196.34 124.2C1215.45 124.2 1232.96 127.384 1248.88 133.753C1265.03 139.894 1279.02 148.651 1290.85 160.023C1302.68 171.396 1311.77 184.815 1318.14 200.282C1324.74 215.521 1328.04 232.239 1328.04 250.435C1328.04 268.403 1324.74 285.121 1318.14 300.587C1311.77 315.826 1302.68 329.246 1290.85 340.846C1279.02 352.218 1265.15 361.089 1249.22 367.457C1233.3 373.598 1215.9 376.669 1197.03 376.669ZM1196.34 316.622C1209.08 316.622 1220.11 313.893 1229.44 308.434C1238.76 302.975 1245.93 295.242 1250.93 285.234C1255.93 275.227 1258.44 263.513 1258.44 250.093C1258.44 240.086 1256.96 231.101 1254 223.141C1251.27 214.953 1247.18 208.015 1241.72 202.329C1236.26 196.415 1229.66 191.98 1221.93 189.023C1214.43 185.839 1205.9 184.247 1196.34 184.247C1183.61 184.247 1172.57 186.976 1163.25 192.435C1153.92 197.666 1146.76 205.286 1141.75 215.294C1136.75 225.074 1134.25 236.674 1134.25 250.093C1134.25 260.329 1135.61 269.54 1138.34 277.729C1141.3 285.917 1145.51 292.968 1150.97 298.881C1156.43 304.568 1162.91 309.003 1170.41 312.187C1178.15 315.144 1186.79 316.622 1196.34 316.622Z" fill="black"/>
<path d="M1418.91 377.01C1408.45 377.01 1397.99 375.645 1387.52 372.916C1377.06 370.187 1367.28 366.434 1358.18 361.657C1349.31 356.881 1341.81 351.422 1335.66 345.281L1370.81 309.117C1376.26 314.575 1382.75 318.897 1390.25 322.081C1397.99 325.265 1406.06 326.858 1414.48 326.858C1418.34 326.858 1421.3 326.403 1423.35 325.493C1425.62 324.356 1426.76 322.877 1426.76 321.058C1426.76 317.873 1424.82 315.485 1420.96 313.893C1417.32 312.301 1412.54 310.822 1406.63 309.458C1400.94 308.093 1394.8 306.387 1388.21 304.34C1381.84 302.066 1375.7 299.109 1369.78 295.47C1363.87 291.603 1359.09 286.372 1355.45 279.776C1351.81 272.952 1349.99 264.309 1349.99 253.846C1349.99 243.156 1352.95 233.717 1358.86 225.529C1365.01 217.113 1373.53 210.517 1384.45 205.741C1395.6 200.737 1408.45 198.235 1423.01 198.235C1437.79 198.235 1452.12 200.737 1465.99 205.741C1479.87 210.745 1490.9 218.251 1499.09 228.258L1463.6 264.423C1457.92 258.054 1451.66 253.846 1444.84 251.799C1438.02 249.525 1432.33 248.388 1427.78 248.388C1423.46 248.388 1420.39 249.07 1418.57 250.435C1416.98 251.572 1416.18 253.05 1416.18 254.87C1416.18 257.372 1418 259.419 1421.64 261.011C1425.28 262.603 1429.94 264.082 1435.63 265.446C1441.54 266.811 1447.68 268.631 1454.05 270.905C1460.42 273.18 1466.45 276.364 1472.13 280.458C1478.05 284.552 1482.82 290.011 1486.46 296.834C1490.1 303.43 1491.92 312.073 1491.92 322.764C1491.92 339.367 1485.33 352.559 1472.13 362.34C1458.94 372.12 1441.2 377.01 1418.91 377.01Z" fill="black"/>
<path d="M1602.58 375.987C1584.39 375.987 1568.01 372.234 1553.45 364.728C1538.9 357.222 1527.41 346.873 1518.99 333.681C1510.58 320.262 1506.37 305.136 1506.37 288.305C1506.37 271.246 1510.58 256.121 1518.99 242.929C1527.64 229.509 1539.24 219.047 1553.79 211.541C1568.58 203.807 1585.18 199.941 1603.61 199.941C1616.8 199.941 1628.63 201.988 1639.09 206.082C1649.78 210.176 1659.67 216.431 1668.77 224.847L1626.81 266.811C1623.85 264.082 1620.55 262.035 1616.91 260.67C1613.27 259.305 1608.84 258.623 1603.61 258.623C1598.15 258.623 1593.14 259.874 1588.59 262.376C1584.27 264.65 1580.75 267.948 1578.02 272.27C1575.29 276.591 1573.92 281.709 1573.92 287.623C1573.92 293.536 1575.29 298.768 1578.02 303.317C1580.75 307.638 1584.39 311.05 1588.94 313.552C1593.48 316.054 1598.37 317.305 1603.61 317.305C1609.52 317.305 1614.41 316.395 1618.28 314.575C1622.14 312.756 1625.55 310.254 1628.51 307.07L1670.48 349.034C1660.7 358.132 1650.46 364.955 1639.77 369.504C1629.08 373.826 1616.68 375.987 1602.58 375.987Z" fill="black"/>
<path d="M1755.16 375.304C1739.47 375.304 1725.59 371.551 1713.54 364.046C1701.48 356.54 1692.04 346.305 1685.22 333.34C1678.4 320.148 1674.98 305.022 1674.98 287.964C1674.98 270.905 1678.4 255.78 1685.22 242.588C1692.04 229.396 1701.48 219.16 1713.54 211.882C1725.59 204.376 1739.47 200.623 1755.16 200.623C1764.94 200.623 1773.92 202.329 1782.11 205.741C1790.53 208.925 1797.46 213.474 1802.92 219.388C1808.61 225.301 1812.25 232.125 1813.84 239.858V336.069C1812.25 343.803 1808.61 350.626 1802.92 356.54C1797.46 362.453 1790.53 367.116 1782.11 370.528C1773.92 373.712 1764.94 375.304 1755.16 375.304ZM1770.17 316.622C1778.59 316.622 1785.3 314.007 1790.3 308.775C1795.53 303.317 1798.15 296.379 1798.15 287.964C1798.15 282.278 1797.01 277.387 1794.74 273.293C1792.46 268.972 1789.16 265.56 1784.84 263.058C1780.75 260.556 1775.97 259.305 1770.51 259.305C1765.05 259.305 1760.16 260.556 1755.84 263.058C1751.75 265.56 1748.45 268.972 1745.95 273.293C1743.45 277.615 1742.19 282.505 1742.19 287.964C1742.19 293.423 1743.33 298.313 1745.61 302.634C1748.11 306.956 1751.52 310.368 1755.84 312.869C1760.16 315.371 1764.94 316.622 1770.17 316.622ZM1796.1 371.893V326.858L1805.31 285.917L1796.1 245.317V204.035H1861.26V371.893H1796.1Z" fill="black"/>
<path d="M2000.24 371.893V277.729C2000.24 271.133 1998.31 266.129 1994.44 262.717C1990.8 259.078 1986.14 257.258 1980.45 257.258C1976.59 257.258 1973.06 258.054 1969.88 259.646C1966.92 261.238 1964.53 263.627 1962.71 266.811C1961.12 269.768 1960.32 273.407 1960.32 277.729L1934.4 266.129C1934.4 252.482 1937.35 240.768 1943.27 230.988C1949.41 221.207 1957.71 213.702 1968.17 208.47C1978.86 203.239 1990.92 200.623 2004.34 200.623C2016.39 200.623 2027.08 203.353 2036.41 208.811C2045.96 214.043 2053.47 221.321 2058.92 230.647C2064.38 239.744 2067.11 250.321 2067.11 262.376V371.893H2000.24ZM1893.45 371.893V204.035H1960.32V371.893H1893.45Z" fill="black"/>
<defs>
<clipPath id="clip0_1021_490">
<rect width="500" height="500" rx="100" fill="white"/>
</clipPath>
</defs>
</svg>
