<svg width="500" height="500" viewBox="0 0 500 500" fill="none" xmlns="http://www.w3.org/2000/svg">
<g clip-path="url(#clip0_1021_427)">
<path d="M500 0H0V500H500V0Z" fill="white"/>
<path d="M174.265 124C150.373 124 131 143.373 131 167.265H227.348V334.343C226.101 373.256 279.712 388.888 304.767 366.531C304.767 366.531 275.372 369.12 275.372 331.346C275.372 293.571 275.372 214.294 275.372 214.294C275.372 191.109 258.949 171.772 237.094 167.265H325.351C349.243 167.265 368.616 147.892 368.616 124H174.265Z" fill="black"/>
<path d="M131 207.48V179H139V207.48H131ZM137.48 207.48V200.84H152.76V207.48H137.48ZM137.48 196.2V189.72H151.28V196.2H137.48ZM137.48 185.64V179H152.52V185.64H137.48Z" fill="black"/>
<path d="M164.36 207.48L153.92 179H162.4L170.12 202H166.36L174.2 179H182.56L171.96 207.48H164.36Z" fill="black"/>
<path d="M185.219 207.48V179H191.019L201.619 194.52H199.099L209.659 179H215.459V207.48H207.539V192.12L208.699 192.44L202.899 200.76H197.779L192.019 192.44L193.139 192.12V207.48H185.219Z" fill="black"/>
<path d="M134.97 226.495V213.224H138.698V226.495H134.97ZM131 216.392V213.224H142.687V216.392H131Z" fill="black"/>
<path d="M144.088 226.495V213.224H147.816V226.495H144.088ZM147.108 226.495V223.401H154.228V226.495H147.108ZM147.108 221.239V218.219H153.538V221.239H147.108ZM147.108 216.318V213.224H154.116V216.318H147.108Z" fill="black"/>
<path d="M159.952 226.718C158.821 226.718 157.833 226.557 156.988 226.234C156.156 225.898 155.385 225.37 154.677 224.65L157.007 222.32C157.491 222.779 158.001 223.134 158.535 223.382C159.07 223.618 159.641 223.736 160.25 223.736C160.76 223.736 161.145 223.662 161.406 223.513C161.667 223.351 161.797 223.134 161.797 222.86C161.797 222.587 161.685 222.363 161.462 222.189C161.238 222.003 160.94 221.841 160.567 221.705C160.207 221.555 159.803 221.406 159.355 221.257C158.92 221.108 158.486 220.928 158.051 220.717C157.616 220.505 157.212 220.251 156.839 219.952C156.479 219.642 156.187 219.263 155.963 218.815C155.739 218.356 155.628 217.797 155.628 217.138C155.628 216.281 155.833 215.541 156.243 214.92C156.653 214.299 157.231 213.826 157.976 213.503C158.722 213.168 159.598 213 160.604 213C161.598 213 162.518 213.162 163.363 213.485C164.22 213.795 164.929 214.243 165.488 214.827L163.139 217.157C162.729 216.759 162.319 216.467 161.909 216.281C161.499 216.082 161.052 215.982 160.567 215.982C160.182 215.982 159.871 216.044 159.635 216.169C159.411 216.293 159.299 216.479 159.299 216.728C159.299 216.989 159.411 217.206 159.635 217.38C159.859 217.542 160.151 217.691 160.511 217.828C160.884 217.964 161.288 218.107 161.723 218.256C162.17 218.405 162.611 218.586 163.046 218.797C163.481 218.996 163.879 219.257 164.239 219.58C164.612 219.89 164.91 220.282 165.134 220.754C165.357 221.226 165.469 221.798 165.469 222.469C165.469 223.823 164.984 224.873 164.015 225.619C163.058 226.352 161.704 226.718 159.952 226.718Z" fill="black"/>
<path d="M169.773 226.495V213.224H173.501V226.495H169.773ZM165.803 216.392V213.224H177.49V216.392H165.803Z" fill="black"/>
<path d="M178.891 226.495V213.224H181.501L182.619 216.02V226.495H178.891ZM188.024 226.495L180.326 216.821L181.501 213.224L189.199 222.897L188.024 226.495ZM188.024 226.495L187.092 223.55V213.224H190.82V226.495H188.024Z" fill="black"/>
<path d="M193.016 226.495V213.224H196.744V226.495H193.016ZM196.036 226.495V223.401H203.156V226.495H196.036ZM196.036 221.239V218.219H202.466V221.239H196.036ZM196.036 216.318V213.224H203.044V216.318H196.036Z" fill="black"/>
<path d="M207.743 226.495V213.224H211.471V226.495H207.743ZM203.773 216.392V213.224H215.46V216.392H203.773Z" fill="black"/>
</g>
<defs>
<clipPath id="clip0_1021_427">
<rect width="500" height="500" rx="100" fill="white"/>
</clipPath>
</defs>
</svg>
